<svg id="Capa_1" enable-background="new 0 0 510.564 510.564" height="512" viewBox="0 0 510.564 510.564" width="512" xmlns="http://www.w3.org/2000/svg"><g><path d="m481.765 60.456c0-33.335-26.361-60.456-58.763-60.456s-58.763 27.121-58.763 60.456c0 1.778.09 3.533.237 5.272-10.2-2.856-20.948-4.389-32.048-4.389h-154.292c-11.1 0-21.847 1.533-32.048 4.389.147-1.739.237-3.495.237-5.272 0-33.335-26.361-60.456-58.762-60.456-32.402 0-58.763 27.121-58.763 60.456 0 29.19 20.212 53.613 46.993 59.237-10.569 17.77-16.651 38.507-16.651 60.641v190.631c0 76.975 62.624 139.599 139.599 139.599h113.083c76.975 0 139.599-62.624 139.599-139.599v-190.631c0-22.134-6.081-42.871-16.651-60.641 26.781-5.624 46.993-30.047 46.993-59.237zm-422.965 0c0-16.793 12.903-30.456 28.763-30.456s28.763 13.663 28.763 30.456c0 16.794-12.903 30.457-28.763 30.457s-28.763-13.663-28.763-30.457zm362.623 310.51c0 60.433-49.166 109.599-109.599 109.599h-113.083c-60.433 0-109.599-49.165-109.599-109.599v-190.632c0-49.071 39.923-88.994 88.994-88.994h154.293c49.071 0 88.994 39.923 88.994 88.994zm1.579-280.053c-15.86 0-28.763-13.663-28.763-30.457s12.903-30.456 28.763-30.456 28.763 13.663 28.763 30.456c0 16.794-12.903 30.457-28.763 30.457z"/><path d="m354.372 181.292c-1.151-6.149-6.353-10.982-12.496-11.909-6.196-.935-12.48 2.255-15.434 7.768-2.962 5.528-2.076 12.488 2.11 17.141 4.18 4.647 11.092 6.174 16.85 3.779 6.488-2.698 10.414-9.853 8.97-16.779z"/><path d="m172.372 199.142c6.374-.532 11.737-5.467 13.151-11.63 1.433-6.246-1.455-12.861-6.924-16.155-5.429-3.27-12.507-2.669-17.359 1.383-4.922 4.111-6.613 11.115-4.265 17.049 2.425 6.126 8.853 10.018 15.397 9.353z"/><path d="m266.883 216.398h-23.201c-45.648 0-82.786 37.137-82.786 82.785v72.233c0 44.613 36.295 80.908 80.908 80.908h26.956c44.613 0 80.908-36.295 80.908-80.908v-72.233c0-45.648-37.137-82.785-82.785-82.785zm-75.987 82.785c0-29.106 23.68-52.785 52.786-52.785h23.201c29.106 0 52.786 23.679 52.786 52.785v34.285c0 14.541-11.139 26.371-24.83 26.371-12.139 0-22.264-9.302-24.406-21.546h3.309c8.284 0 15-6.716 15-15s-6.716-15-15-15h-36.92c-8.284 0-15 6.716-15 15s6.716 15 15 15h3.309c-2.141 12.244-12.267 21.546-24.406 21.546-13.691 0-24.83-11.83-24.83-26.371v-34.285zm77.864 123.141h-26.956c-23.52 0-43.358-16.037-49.174-37.747 7.024 3.369 14.847 5.263 23.095 5.263 15.535 0 29.57-6.688 39.557-17.397 9.986 10.709 24.022 17.397 39.557 17.397 8.248 0 16.071-1.894 23.095-5.263-5.816 21.711-25.653 37.747-49.174 37.747z"/></g></svg>